<?xml version="1.0" encoding="utf-8"?>
<!-- Generator: Adobe Illustrator 14.0.0, SVG Export Plug-In . SVG Version: 6.00 Build 43363)  -->
<!DOCTYPE svg PUBLIC "-//W3C//DTD SVG 1.1//EN" "http://www.w3.org/Graphics/SVG/1.1/DTD/svg11.dtd">
<svg version="1.1" id="Layer_1" xmlns="http://www.w3.org/2000/svg" xmlns:xlink="http://www.w3.org/1999/xlink" x="0px" y="0px"
	 width="1550px" height="908px" viewBox="0 0 1550 908" enable-background="new 0 0 1550 908" xml:space="preserve">
<g id="graph0" transform="scale(1 1) rotate(0) translate(4 904)">
	<title>G</title>
	<polygon fill="#FFFFFF" points="-4,4 -4,-904 1546,-904 1546,4 	"/>
	<g id="node1">
		<title>LUAR</title>
		<ellipse fill="none" stroke="#000000" cx="271" cy="-882" rx="36.294" ry="18"/>
		<text transform="matrix(1 0 0 1 251.9448 -878.2998)" font-family="'Times-Roman'" font-size="14">LUAR</text>
	</g>
	<g id="node4">
		<title>PVCR</title>
		<ellipse fill="none" stroke="#000000" cx="656" cy="-810" rx="35.194" ry="18"/>
		<text transform="matrix(1 0 0 1 637.7139 -806.2998)" font-family="'Times-Roman'" font-size="14">PVCR</text>
	</g>
	<g id="edge1">
		<title>LUAR-&gt;PVCR</title>
		<path fill="none" stroke="#008000" d="M304.07-874.225c69.759,13.299,231.421,42.696,309.015,56.197"/>
		<polygon fill="#008000" stroke="#008000" points="613.756,-821.464 623.012,-816.309 612.562,-814.567 		"/>
	</g>
	<g id="node5">
		<title>AVDR</title>
		<ellipse fill="none" stroke="#000000" cx="198" cy="-18" rx="37.094" ry="18"/>
		<text transform="matrix(1 0 0 1 179.0679 -14.2998)" font-family="'Times-Roman'" font-size="14">AVDR</text>
	</g>
	<g id="edge2">
		<title>LUAR-&gt;AVDR</title>
		<path fill="none" stroke="#008000" d="M235.013-878.578C161.296-871.461,0-843.905,0-739c0,0,0,0,0,578
			c0,46.267,18.289,59.583,54,89c28.726,23.663,68.985,37.283,99.634,44.774"/>
		<polygon fill="#008000" stroke="#008000" points="154.675,-30.577 163.629,-24.914 153.098,-23.757 		"/>
	</g>
	<g id="node7">
		<title>AVAR</title>
		<ellipse fill="none" stroke="#000000" cx="756" cy="-594" rx="37.094" ry="18"/>
		<text transform="matrix(1 0 0 1 737.9702 -590.2998)" font-family="'Times-Roman'" font-size="14">AVAR</text>
	</g>
	<g id="edge3">
		<title>LUAR-&gt;AVAR</title>
		<path fill="none" stroke="#008000" d="M297.683-869.428c22.969,10.21,56.814,25.85,85.317,41.428
			c132.188,72.245,282.173,171.526,344.007,213.26"/>
		<polygon fill="#008000" stroke="#008000" points="729.156,-617.512 735.479,-609.01 725.234,-611.714 		"/>
	</g>
	<g id="node11">
		<title>AVAL</title>
		<ellipse fill="none" stroke="#000000" cx="539" cy="-522" rx="36.294" ry="18"/>
		<text transform="matrix(1 0 0 1 521.3633 -518.2998)" font-family="'Times-Roman'" font-size="14">AVAL</text>
	</g>
	<g id="edge4">
		<title>LUAR-&gt;AVAL</title>
		<path fill="none" stroke="#008000" d="M281.376-864.456C311.104-817.5,400.049-680.066,487-576
			c8.782,10.51,19.231,21.426,28.452,30.6"/>
		<polygon fill="#008000" stroke="#008000" points="518.155,-547.651 522.844,-538.151 513.254,-542.654 		"/>
	</g>
	<g id="node14">
		<title>AVDL</title>
		<ellipse fill="none" stroke="#000000" cx="522" cy="-234" rx="36.294" ry="18"/>
		<text transform="matrix(1 0 0 1 503.4609 -230.2998)" font-family="'Times-Roman'" font-size="14">AVDL</text>
	</g>
	<g id="edge5">
		<title>LUAR-&gt;AVDL</title>
		<path fill="none" stroke="#008000" d="M242.568-870.44C197.325-851.581,114-807.542,114-739c0,0,0,0,0,74
			c0,190.513,41.89,276.922,204,377c49.004,30.253,114.857,43.339,158.321,48.933"/>
		<polygon fill="#008000" stroke="#008000" points="476.812,-242.533 486.322,-237.862 475.975,-235.584 		"/>
	</g>
	<g id="node16">
		<title>PLMR</title>
		<ellipse fill="none" stroke="#000000" cx="536" cy="-666" rx="36.294" ry="18"/>
		<text transform="matrix(1 0 0 1 516.938 -662.2998)" font-family="'Times-Roman'" font-size="14">PLMR</text>
	</g>
	<g id="edge6">
		<title>LUAR-&gt;PLMR</title>
		<path fill="none" stroke="#000000" d="M286.355-865.61c43.156,38.013,164.753,136.323,220.856,178.695"/>
		<polygon stroke="#000000" points="509.407,-689.644 515.312,-680.848 505.211,-684.04 		"/>
	</g>
	<g id="node2">
		<title>AVBR</title>
		<ellipse fill="none" stroke="#000000" cx="1080" cy="-666" rx="36.294" ry="18"/>
		<text transform="matrix(1 0 0 1 1061.4541 -662.2998)" font-family="'Times-Roman'" font-size="14">AVBR</text>
	</g>
	<g id="edge9">
		<title>AVBR-&gt;AVAR</title>
		<path fill="none" stroke="#008000" d="M1047.15-657.903c-58.793,12.702-181.988,39.319-247.695,53.515"/>
		<polygon fill="#008000" stroke="#008000" points="799.935,-600.911 789.421,-602.221 798.457,-607.754 		"/>
	</g>
	<g id="node9">
		<title>DVA</title>
		<ellipse fill="none" stroke="#000000" cx="1207" cy="-234" rx="30.595" ry="18"/>
		<text transform="matrix(1 0 0 1 1192.7363 -230.2998)" font-family="'Times-Roman'" font-size="14">DVA</text>
	</g>
	<g id="edge7">
		<title>AVBR-&gt;DVA</title>
		<path fill="none" stroke="#000000" d="M1085.47-648.132C1104.84-606.838,1164.93-496.688,1189-396
			c10.99,45.99,11.4,101.379,12.99,133.745"/>
		<polygon stroke="#000000" points="1205.48,-262.4 1202.59,-252.209 1198.5,-261.982 		"/>
	</g>
	<g id="edge8">
		<title>AVBR-&gt;AVAL</title>
		<path fill="none" stroke="#008000" d="M1053.52-653.375C1009.84-634.609,919.564-597.567,840-576
			c-89.136,24.161-196.202,39.968-255.615,47.612"/>
		<polygon fill="#008000" stroke="#008000" points="584.573,-524.884 574.212,-527.1 583.693,-531.829 		"/>
	</g>
	<g id="node18">
		<title>AVBL</title>
		<ellipse fill="none" stroke="#000000" cx="1016" cy="-738" rx="36.294" ry="18"/>
		<text transform="matrix(1 0 0 1 997.8477 -734.2998)" font-family="'Times-Roman'" font-size="14">AVBL</text>
	</g>
	<g id="edge10">
		<title>AVBR-&gt;AVBL</title>
		<path fill="none" stroke="#008000" d="M1065.53-682.821c-8.33-9.118-18.96-20.747-28.24-30.892"/>
		<polygon fill="#008000" stroke="#008000" points="1034.689,-711.374 1030.52,-721.116 1039.85,-716.097 		"/>
	</g>
	<g id="edge11">
		<title>AVBR-&gt;AVBL</title>
		<path fill="none" stroke="#000000" d="M1076.17-684.082c-7.01-9.951-18.35-22.549-29.59-32.956"/>
		<polygon stroke="#000000" points="1044.05,-714.597 1038.86,-723.834 1048.68,-719.85 		"/>
	</g>
	<g id="node3">
		<title>PLML</title>
		<ellipse fill="none" stroke="#000000" cx="688" cy="-378" rx="36.294" ry="18"/>
		<text transform="matrix(1 0 0 1 669.3311 -374.2998)" font-family="'Times-Roman'" font-size="14">PLML</text>
	</g>
	<g id="node15">
		<title>PVCL</title>
		<ellipse fill="none" stroke="#000000" cx="840" cy="-306" rx="34.394" ry="18"/>
		<text transform="matrix(1 0 0 1 822.1074 -302.2998)" font-family="'Times-Roman'" font-size="14">PVCL</text>
	</g>
	<g id="edge12">
		<title>PLML-&gt;PVCL</title>
		<path fill="none" stroke="#000000" d="M711.179-363.834c24.613,12.134,63.567,30.096,92.279,42.567"/>
		<polygon stroke="#000000" points="804.963,-324.43 812.767,-317.265 802.198,-317.999 		"/>
	</g>
	<g id="node17">
		<title>LUAL</title>
		<ellipse fill="none" stroke="#000000" cx="539" cy="-450" rx="36.294" ry="18"/>
		<text transform="matrix(1 0 0 1 520.3379 -446.2998)" font-family="'Times-Roman'" font-size="14">LUAL</text>
	</g>
	<g id="edge13">
		<title>PLML-&gt;LUAL</title>
		<path fill="none" stroke="#000000" d="M665.101-392.31c-23.679-11.915-60.752-29.365-88.658-41.753"/>
		<polygon stroke="#000000" points="574.738,-430.989 566.991,-438.216 577.554,-437.397 		"/>
	</g>
	<g id="edge14">
		<title>PVCR-&gt;LUAR</title>
		<path fill="none" stroke="#008000" d="M623.998-817.572c-68.814-13.133-230.45-42.532-308.897-56.193"/>
		<polygon fill="#008000" stroke="#008000" points="314.308,-870.35 305.053,-875.507 315.504,-877.247 		"/>
	</g>
	<g id="edge15">
		<title>PVCR-&gt;AVBR</title>
		<path fill="none" stroke="#008000" d="M691.134-809.396C779.456-809.637,1007.52-805.354,1061-756
			c16.73,15.441,20.65,41.698,20.87,61.703"/>
		<polygon fill="#008000" stroke="#008000" points="1085.37,-694.152 1081.689,-684.217 1078.37,-694.278 		"/>
	</g>
	<g id="edge16">
		<title>PVCR-&gt;AVDR</title>
		<path fill="none" stroke="#008000" d="M620.626-808.463C560.276-806.397,434.584-797.045,338-756C117.117-662.133,38-547,38-307
			c0,0,0,0,0,146c0,64.802,74.324,107.233,121.659,127.686"/>
		<polygon fill="#008000" stroke="#008000" points="161.148,-36.485 169.025,-29.399 158.449,-30.026 		"/>
	</g>
	<g id="edge18">
		<title>PVCR-&gt;AVAR</title>
		<path fill="none" stroke="#008000" d="M649.242-792.111c2.489,18.02,14.377,47.323,25.758,72.111
			c16.69,36.351,37.961,77.631,55.807,102.475"/>
		<polygon fill="#008000" stroke="#008000" points="733.68,-619.531 736.964,-609.458 728.115,-615.284 		"/>
	</g>
	<g id="edge19">
		<title>PVCR-&gt;AVAR</title>
		<path fill="none" stroke="#000000" d="M662.595-792.111c7.137,18.02,19.024,47.323,30.405,72.111
			c16.004,34.859,36.222,74.249,49.374,99.333"/>
		<polygon stroke="#000000" points="745.484,-622.272 747.045,-611.793 739.29,-619.012 		"/>
	</g>
	<g id="node8">
		<title>PVDL</title>
		<ellipse fill="none" stroke="#000000" cx="737" cy="-738" rx="35.194" ry="18"/>
		<text transform="matrix(1 0 0 1 718.7207 -734.2998)" font-family="'Times-Roman'" font-size="14">PVDL</text>
	</g>
	<g id="edge17">
		<title>PVCR-&gt;PVDL</title>
		<path fill="none" stroke="#008000" d="M668.619-793.116c10.58,10.155,25.783,23.407,39.246,34.256"/>
		<polygon fill="#008000" stroke="#008000" points="710.285,-761.409 715.965,-752.466 705.947,-755.915 		"/>
	</g>
	<g id="edge20">
		<title>PVCR-&gt;AVAL</title>
		<path fill="none" stroke="#008000" d="M625.32-801.176C580.499-785.531,502.373-746.437,473-684
			c-22.435,47.688,10.712,108.264,38.485,139.778"/>
		<polygon fill="#008000" stroke="#008000" points="514.102,-546.548 518.394,-536.862 508.998,-541.758 		"/>
	</g>
	<g id="edge21">
		<title>PVCR-&gt;AVAL</title>
		<path fill="none" stroke="#000000" d="M628.942-798.256C589.707-780.975,518.69-742.859,491-684
			c-21.677,46.077,8.537,104.187,29.947,136.488"/>
		<polygon stroke="#000000" points="523.934,-549.345 526.701,-539.118 518.16,-545.387 		"/>
	</g>
	<g id="edge22">
		<title>PVCR-&gt;AVDL</title>
		<path fill="none" stroke="#008000" d="M626.886-799.923C597.538-790.378,551.238-774.233,513-756
			c-142.163,67.788-267,75.502-267,233c0,0,0,0,0,74c0,117.361,157.782,179.589,234.751,202.963"/>
		<polygon fill="#008000" stroke="#008000" points="482.011,-249.314 490.608,-243.122 480.026,-242.602 		"/>
	</g>
	<g id="edge23">
		<title>PVCR-&gt;PVCL</title>
		<path fill="none" stroke="#008000" d="M690.72-806.82c86.055,4.939,300.422,19.109,366.28,50.82c50.97,24.543,91,32.428,91,89
			c0,0,0,0,0,74c0,124.871-56.37,159.068-157,233c-32.826,24.117-76.6,37.338-109.279,44.544"/>
		<polygon fill="#008000" stroke="#008000" points="882.034,-311.946 871.529,-313.322 880.599,-318.797 		"/>
	</g>
	<g id="edge24">
		<title>PVCR-&gt;PVCL</title>
		<path fill="none" stroke="#000000" d="M690.77-807.332C778.649-802.909,1006.7-788.889,1075-756c50.97,24.543,91,32.428,91,89
			c0,0,0,0,0,74c0,124.871-56.37,159.068-157,233c-37.367,27.453-88.921,40.787-125.337,47.202"/>
		<polygon stroke="#000000" points="883.787,-309.271 873.35,-311.093 882.646,-316.177 		"/>
	</g>
	<g id="edge25">
		<title>PVCR-&gt;PLMR</title>
		<path fill="none" stroke="#000000" d="M639.046-794.072c-23.465,24.368-64.81,72.931-87.504,102.459"/>
		<polygon stroke="#000000" points="554.216,-689.346 545.402,-683.467 548.626,-693.559 		"/>
	</g>
	<g id="edge26">
		<title>PVCR-&gt;AVBL</title>
		<path fill="none" stroke="#008000" d="M688.264-802.726c64.812,12.602,210.859,41,284.11,55.243"/>
		<polygon fill="#008000" stroke="#008000" points="973.487,-750.832 982.635,-745.488 972.151,-743.961 		"/>
	</g>
	<g id="edge29">
		<title>AVDR-&gt;AVAR</title>
		<path fill="none" stroke="#008000" d="M192.468-35.838C184.308-62.213,170-115.017,170-161c0-74,0-74,0-74
			c0-98.883,236.173-259.566,324-305c69.314-35.857,160.618-47.476,215.113-51.227"/>
		<polygon fill="#008000" stroke="#008000" points="708.975,-594.725 719.175,-591.859 709.414,-587.739 		"/>
	</g>
	<g id="edge28">
		<title>AVDR-&gt;AVAL</title>
		<path fill="none" stroke="#008000" d="M206.643-35.938C238.456-97.469,353.859-313.645,482-468
			c9.354-11.268,21.004-22.494,31.329-31.694"/>
		<polygon fill="#008000" stroke="#008000" points="511.069,-502.367 520.906,-506.302 515.67,-497.092 		"/>
	</g>
	<g id="edge27">
		<title>AVDR-&gt;AVDL</title>
		<path fill="none" stroke="#008000" d="M235.117-18.613C284.338-19.928,371.76-28.808,430-72
			c45.775-33.948,72.235-97.933,84.205-134.179"/>
		<polygon fill="#008000" stroke="#008000" points="510.974,-207.571 517.33,-216.047 517.646,-205.457 		"/>
	</g>
	<g id="edge30">
		<title>AVDR-&gt;LUAL</title>
		<path fill="none" stroke="#008000" d="M232.493-24.675C294.112-37.651,416-75.239,416-161c0-74,0-74,0-74
			c0-79.673,67.097-154.517,102.355-190.92"/>
		<polygon fill="#008000" stroke="#008000" points="515.868,-428.383 525.359,-433.092 520.876,-423.492 		"/>
	</g>
	<g id="edge31">
		<title>AVDR-&gt;AVBL</title>
		<path fill="none" stroke="#008000" d="M179.907-34.12C149.865-57.125,94-104.289,94-161c0-146,0-146,0-146
			c0-246.242,168.531-311.857,406-377c45.13-12.38,352.686-38.763,470.416-48.908"/>
		<polygon fill="#008000" stroke="#008000" points="970.28,-736.409 980.544,-733.781 970.882,-729.435 		"/>
	</g>
	<g id="node6">
		<title>ALML</title>
		<ellipse fill="none" stroke="#000000" cx="681" cy="-90" rx="37.895" ry="18"/>
		<text transform="matrix(1 0 0 1 661.1689 -86.2998)" font-family="'Times-Roman'" font-size="14">ALML</text>
	</g>
	<g id="edge34">
		<title>ALML-&gt;PVCR</title>
		<path fill="none" stroke="#008000" d="M643.092-90.87C530.851-92.659,208-114.372,208-305c0-218,0-218,0-218
			c0-142.118,85.776-183.514,219-233c62.593-23.25,138.725-38.431,185.517-46.36"/>
		<polygon fill="#008000" stroke="#008000" points="612.174,-805.85 622.612,-804.034 613.32,-798.945 		"/>
	</g>
	<g id="edge35">
		<title>ALML-&gt;AVDR</title>
		<path fill="none" stroke="#008000" d="M647.611-81.398C633.039-78.234,615.722-74.683,600-72
			C471.591-50.093,318.777-32.164,243.933-23.908"/>
		<polygon fill="#008000" stroke="#008000" points="244.222,-20.419 233.9,-22.809 243.459,-27.378 		"/>
	</g>
	<g id="node10">
		<title>AVM</title>
		<ellipse fill="none" stroke="#000000" cx="763" cy="-162" rx="32.494" ry="18"/>
		<text transform="matrix(1 0 0 1 747.5679 -158.2998)" font-family="'Times-Roman'" font-size="14">AVM</text>
	</g>
	<g id="edge32">
		<title>ALML-&gt;AVM</title>
		<path fill="none" stroke="#000000" d="M702.831-104.927c12.414-9.506,27.706-22.317,39.854-33.294"/>
		<polygon stroke="#000000" points="740.432,-140.904 750.154,-145.116 745.181,-135.761 		"/>
	</g>
	<g id="edge33">
		<title>ALML-&gt;PVCL</title>
		<path fill="none" stroke="#008000" d="M686.934-107.904C693.856-126.452,706.37-156.684,722-180c24.34-36.308,36.956-40.25,67-72
			c9.325-9.855,19.695-20.659,28.636-29.927"/>
		<polygon fill="#008000" stroke="#008000" points="815.29,-284.536 824.756,-289.296 820.325,-279.673 		"/>
	</g>
	<g id="edge37">
		<title>AVAR-&gt;PVCR</title>
		<path fill="none" stroke="#000000" d="M758.882-612.197C752.194-636.118,728.948-680.909,711-720
			c-10.108-22.015-20.616-47.592-31.094-65.662"/>
		<polygon stroke="#000000" points="676.792,-784.04 674.432,-794.369 682.718,-787.766 		"/>
	</g>
	<g id="edge36">
		<title>AVAR-&gt;AVAL</title>
		<path fill="none" stroke="#000000" d="M723.7-584.94c-9.09,2.862-18.816,6.081-27.7,8.94c-51.386,16.536-64.664,19.31-116,36
			c-1.864,0.606-3.765,1.229-5.679,1.863"/>
		<polygon stroke="#000000" points="575.351,-534.791 564.757,-534.918 573.118,-541.425 		"/>
	</g>
	<g id="edge41">
		<title>PVDL-&gt;PVCR</title>
		<path fill="none" stroke="#008000" d="M724.358-754.906c-10.571-10.144-25.747-23.373-39.191-34.209"/>
		<polygon fill="#008000" stroke="#008000" points="682.755,-786.559 677.076,-795.503 687.093,-792.053 		"/>
	</g>
	<g id="edge40">
		<title>PVDL-&gt;AVAR</title>
		<path fill="none" stroke="#008000" d="M739.292-719.871c3.238,24.201,9.187,68.66,13.043,97.478"/>
		<polygon fill="#008000" stroke="#008000" points="755.843,-622.565 753.7,-612.189 748.905,-621.637 		"/>
	</g>
	<g id="edge38">
		<title>PVDL-&gt;AVAL</title>
		<path fill="none" stroke="#008000" d="M722.441-721.264c-34.472,37.256-121.221,131.015-161.836,174.913"/>
		<polygon fill="#008000" stroke="#008000" points="562.941,-543.722 553.581,-538.759 557.803,-548.476 		"/>
	</g>
	<g id="edge39">
		<title>PVDL-&gt;PVCL</title>
		<path fill="none" stroke="#008000" d="M752.329-721.487C789.341-682.8,882.966-577.271,916-468
			c15.6,51.603-25.334,107.624-53.01,138.09"/>
		<polygon fill="#008000" stroke="#008000" points="865.328,-327.285 855.939,-322.377 860.217,-332.069 		"/>
	</g>
	<g id="edge42">
		<title>DVA-&gt;AVBR</title>
		<path fill="none" stroke="#000000" d="M1213.38-251.737c4.96-29.571,5.92-92.802-6.38-144.263
			c-22.73-95.092-77.59-198.625-107.5-244.623"/>
		<polygon stroke="#000000" points="1096.53,-638.778 1093.87,-649.036 1102.34,-642.672 		"/>
	</g>
	<g id="edge43">
		<title>DVA-&gt;PVCR</title>
		<path fill="none" stroke="#FF0000" d="M1227.65-247.475c14.51-9.604,33.529-24.003,46.35-40.525c42.93-55.333,49.46-75.489,64-144
			c23.63-111.371,33.05-170.071-46-252c-46.4-48.089-68.2-52.12-132-72c-85.26-26.565-352.192-44.325-459.086-50.541"/>
		<polygon fill="#FF0000" stroke="#FF0000" points="700.564,-803.055 690.781,-807.123 700.965,-810.044 		"/>
	</g>
	<g id="edge44">
		<title>DVA-&gt;AVAR</title>
		<path fill="none" stroke="#FF0000" d="M1189.55-248.848c-69.1-54.854-323.881-257.099-407.079-323.14"/>
		<polygon fill="#FF0000" stroke="#FF0000" points="780.177,-569.34 774.521,-578.299 784.529,-574.823 		"/>
	</g>
	<g id="edge45">
		<title>DVA-&gt;AVAL</title>
		<path fill="none" stroke="#FF0000" d="M1184.01-246.122C1111.8-280.876,882.764-389.788,688-468
			c-36.854-14.799-79.631-29.795-109.871-40.041"/>
		<polygon fill="#FF0000" stroke="#FF0000" points="576.74,-504.816 568.381,-511.326 578.975,-511.449 		"/>
	</g>
	<g id="edge46">
		<title>DVA-&gt;PVCL</title>
		<path fill="none" stroke="#FF0000" d="M1177.17-238.181C1120.29-244.637,992.644-261,888-288
			c-3.792-0.978-7.709-2.127-11.594-3.358"/>
		<polygon fill="#FF0000" stroke="#FF0000" points="875.277,-288.045 866.904,-294.537 877.498,-294.683 		"/>
	</g>
	<g id="edge47">
		<title>DVA-&gt;PVCL</title>
		<path fill="none" stroke="#000000" d="M1177.88-239.445C1123.12-246.63,1004.39-262.613,906-288
			c-7.875-2.032-16.29-4.799-24.674-7.51"/>
		<polygon stroke="#000000" points="880.004,-292.258 871.532,-298.62 882.123,-298.93 		"/>
	</g>
	<g id="edge48">
		<title>DVA-&gt;AVBL</title>
		<path fill="none" stroke="#FF0000" d="M1216.02-251.522C1238.65-294.546,1296-414.137,1296-521c0-74,0-74,0-74
			c0-103.544-154.189-131.609-233.73-139.198"/>
		<polygon fill="#FF0000" stroke="#FF0000" points="1061.689,-730.736 1052.03,-735.101 1062.3,-737.709 		"/>
	</g>
	<g id="edge49">
		<title>DVA-&gt;AVBL</title>
		<path fill="none" stroke="#000000" d="M1223.1-249.391C1254.68-290.469,1314-412.317,1314-521c0-74,0-74,0-74
			c0-107.916-167.48-133.844-251.71-140.054"/>
		<polygon stroke="#000000" points="1061.939,-731.569 1052.2,-735.733 1062.41,-738.553 		"/>
	</g>
	<g id="edge50">
		<title>AVM-&gt;AVBR</title>
		<path fill="none" stroke="#008000" d="M795.512-163.54C916.482-166.355,1337.04-183.623,1404-288
			c98.53-153.579-186.689-310.631-289-360.662"/>
		<polygon fill="#008000" stroke="#008000" points="1113.17,-645.661 1105.689,-653.166 1116.22,-651.962 		"/>
	</g>
	<g id="edge51">
		<title>AVM-&gt;PVCR</title>
		<path fill="none" stroke="#008000" d="M795.515-164.439C900.201-169.324,1227.57-186.621,1329-216c83.811-24.276,175-1.742,175-89
			c0-218,0-218,0-218c0-4.313-206.35-204.083-284-233c-94.939-35.359-402.379-48.132-518.777-51.772"/>
		<polygon fill="#008000" stroke="#008000" points="701.106,-804.274 691.217,-808.077 701.319,-811.271 		"/>
	</g>
	<g id="edge52">
		<title>AVM-&gt;ALML</title>
		<path fill="none" stroke="#000000" d="M742.165-147.834c-12.468,9.487-28.08,22.536-40.501,33.739"/>
		<polygon stroke="#000000" points="703.754,-111.261 694.029,-107.057 699.009,-116.408 		"/>
	</g>
	<g id="node13">
		<title>ALMR</title>
		<ellipse fill="none" stroke="#000000" cx="775" cy="-90" rx="38.193" ry="18"/>
		<text transform="matrix(1 0 0 1 754.7759 -86.2998)" font-family="'Times-Roman'" font-size="14">ALMR</text>
	</g>
	<g id="edge53">
		<title>AVM-&gt;ALMR</title>
		<path fill="none" stroke="#000000" d="M760.027-144.055c0.516,7.91,1.93,17.515,3.819,26.366"/>
		<polygon stroke="#000000" points="767.292,-118.333 766.26,-107.789 760.491,-116.675 		"/>
	</g>
	<g id="edge54">
		<title>AVM-&gt;AVDL</title>
		<path fill="none" stroke="#000000" d="M735.86-172.264c-41.97-12.937-122.517-36.357-171.967-50.026"/>
		<polygon stroke="#000000" points="562.855,-218.946 554.14,-224.97 564.71,-225.696 		"/>
	</g>
	<g id="edge55">
		<title>AVM-&gt;PVCL</title>
		<path fill="none" stroke="#008000" d="M771.926-179.462c13.297-24.521,38.422-70.855,54.148-99.856"/>
		<polygon fill="#008000" stroke="#008000" points="823.173,-281.311 831.016,-288.433 829.326,-277.974 		"/>
	</g>
	<g id="edge56">
		<title>AVM-&gt;AVBL</title>
		<path fill="none" stroke="#008000" d="M745.531-177.293C703.49-213.51,603.02-311.977,643-396
			c76.29-160.333,188.696-122.339,310-252c18.561-19.84,36.111-45.406,47.95-64.043"/>
		<polygon fill="#008000" stroke="#008000" points="998.016,-713.952 1006.28,-720.58 1003.95,-710.244 		"/>
	</g>
	<g id="edge59">
		<title>AVAL-&gt;PVCR</title>
		<path fill="none" stroke="#000000" d="M536.792-540.061C522.879-570.136,485.533-634.118,509-684
			c24.085-51.195,80.947-86.697,116.979-106.446"/>
		<polygon stroke="#000000" points="624.637,-793.699 635.1,-795.363 627.958,-787.537 		"/>
	</g>
	<g id="edge58">
		<title>AVAL-&gt;AVAR</title>
		<path fill="none" stroke="#000000" d="M570.555-531.001c8.998-2.886,18.639-6.136,27.445-8.999c51.336-16.69,64.614-19.464,116-36
			c1.932-0.622,3.905-1.261,5.89-1.909"/>
		<polygon stroke="#000000" points="719.217,-581.373 729.81,-581.198 721.42,-574.729 		"/>
	</g>
	<g id="edge57">
		<title>AVAL-&gt;PVCL</title>
		<path fill="none" stroke="#000000" d="M553.556-505.393C585.37-482.639,657.18-438.432,715-396
			c31.677,23.247,66.286,52.872,91.933,71.392"/>
		<polygon stroke="#000000" points="809.081,-327.377 815.27,-318.778 805.069,-321.64 		"/>
	</g>
	<g id="edge60">
		<title>AVAL-&gt;LUAL</title>
		<path fill="none" stroke="#000000" d="M527.398-504.765c-1.844,8.217-2.345,18.392-1.502,27.672"/>
		<polygon stroke="#000000" points="529.365,-477.562 527.418,-467.147 522.446,-476.503 		"/>
	</g>
	<g id="node12">
		<title>PVDR</title>
		<ellipse fill="none" stroke="#000000" cx="774" cy="-882" rx="35.995" ry="18"/>
		<text transform="matrix(1 0 0 1 755.3276 -878.2998)" font-family="'Times-Roman'" font-size="14">PVDR</text>
	</g>
	<g id="edge61">
		<title>PVDR-&gt;PVCR</title>
		<path fill="none" stroke="#008000" d="M751.805-867.834c-18.377,10.902-44.686,26.509-65.086,38.611"/>
		<polygon fill="#008000" stroke="#008000" points="688.482,-826.199 678.095,-824.107 684.91,-832.22 		"/>
	</g>
	<g id="edge62">
		<title>PVDR-&gt;AVAR</title>
		<path fill="none" stroke="#008000" d="M776.316-864.035c3.662,29.4,9.866,91.693,4.684,144.035
			c-3.377,34.109-11.818,72.697-17.96,97.862"/>
		<polygon fill="#008000" stroke="#008000" points="766.385,-621.085 760.57,-612.228 759.592,-622.777 		"/>
	</g>
	<g id="edge63">
		<title>PVDR-&gt;PVDL</title>
		<path fill="none" stroke="#008000" d="M769.537-863.871c-6.334,24.307-17.993,69.052-25.498,97.858"/>
		<polygon fill="#008000" stroke="#008000" points="747.387,-764.984 741.479,-756.189 740.613,-766.749 		"/>
	</g>
	<g id="edge64">
		<title>PVDR-&gt;DVA</title>
		<path fill="none" stroke="#008000" d="M809.748-881.364C951.45-881.865,1466-874.366,1466-739c0,0,0,0,0,218
			c0,126.892-70.78,148.001-165,233c-17.85,16.104-41.42,29.38-60.5,38.617"/>
		<polygon fill="#008000" stroke="#008000" points="1241.811,-246.13 1231.27,-245.053 1238.84,-252.468 		"/>
	</g>
	<g id="edge65">
		<title>PVDR-&gt;AVAL</title>
		<path fill="none" stroke="#008000" d="M740.262-875.601C705.711-868.843,651.604-854.751,612-828
			c-69.271,46.792-92.382,65.457-121,144c-17.267,47.391,10.697,104.222,30.663,136.114"/>
		<polygon fill="#008000" stroke="#008000" points="524.789,-549.498 527.291,-539.203 518.915,-545.691 		"/>
	</g>
	<g id="edge66">
		<title>PVDR-&gt;PVCL</title>
		<path fill="none" stroke="#008000" d="M809.781-880.47C941.251-877.573,1390-858.901,1390-739c0,0,0,0,0,146
			c0,227.387-374.62,274.249-505.51,283.683"/>
		<polygon fill="#008000" stroke="#008000" points="884.62,-305.818 874.405,-308.63 884.144,-312.801 		"/>
	</g>
	<g id="edge68">
		<title>ALMR-&gt;PVCR</title>
		<path fill="none" stroke="#008000" d="M812.513-93.914C966.503-106.366,1542-157.925,1542-233c0-290,0-290,0-290
			c0-161.213-126.87-176.89-278-233c-103.27-38.342-439.918-49.364-562.679-52.151"/>
		<polygon fill="#008000" stroke="#008000" points="701.064,-804.656 691.143,-808.375 701.218,-811.654 		"/>
	</g>
	<g id="edge67">
		<title>ALMR-&gt;AVM</title>
		<path fill="none" stroke="#000000" d="M777.973-107.956c-0.521-7.958-1.947-17.628-3.854-26.521"/>
		<polygon stroke="#000000" points="770.664,-133.865 771.684,-144.411 777.463,-135.531 		"/>
	</g>
	<g id="edge72">
		<title>AVDL-&gt;AVAR</title>
		<path fill="none" stroke="#008000" d="M531.146-251.708C536.856-262.14,544.358-275.852,551-288
			c26.238-47.991,29.535-61.919,59-108c41.506-64.913,97.299-136.508,126.432-172.891"/>
		<polygon fill="#008000" stroke="#008000" points="733.91,-571.34 742.903,-576.941 739.366,-566.954 		"/>
	</g>
	<g id="edge69">
		<title>AVDL-&gt;AVM</title>
		<path fill="none" stroke="#000000" d="M551.145-223.119c43.405,13.335,124.716,36.951,173.078,50.27"/>
		<polygon stroke="#000000" points="725.294,-176.185 734.017,-170.171 723.448,-169.433 		"/>
	</g>
	<g id="edge70">
		<title>AVDL-&gt;AVAL</title>
		<path fill="none" stroke="#008000" d="M514.885-251.706C499.296-290.835,465.697-390.938,494-468
			c4.142-11.278,11.865-21.797,19.759-30.444"/>
		<polygon fill="#008000" stroke="#008000" points="511.471,-501.111 520.959,-505.826 516.482,-496.223 		"/>
	</g>
	<g id="edge71">
		<title>AVDL-&gt;PVCL</title>
		<path fill="none" stroke="#008000" d="M553.136-243.43c9.058-2.962,18.83-6.152,27.864-8.57
			c75.654-20.246,165.212-36.425,216.847-45.359"/>
		<polygon fill="#008000" stroke="#008000" points="797.513,-300.853 807.962,-299.102 798.701,-293.955 		"/>
	</g>
	<g id="edge73">
		<title>AVDL-&gt;LUAL</title>
		<path fill="none" stroke="#008000" d="M527.202-251.935c6.49-36.912,13.755-124.891,14.315-169.75"/>
		<polygon fill="#008000" stroke="#008000" points="538.018,-421.848 541.515,-431.849 545.018,-421.85 		"/>
	</g>
	<g id="edge74">
		<title>PVCL-&gt;AVBR</title>
		<path fill="none" stroke="#008000" d="M873.168-311.357C906.562-317.261,957.888-330.659,992-360
			c42.83-36.842,73.5-210.311,84.02-277.925"/>
		<polygon fill="#008000" stroke="#008000" points="1072.561,-638.474 1077.53,-647.831 1079.48,-637.417 		"/>
	</g>
	<g id="edge75">
		<title>PVCL-&gt;PLML</title>
		<path fill="none" stroke="#000000" d="M817.659-319.753c-24.293-12.004-63.219-29.971-92.165-42.566"/>
		<polygon stroke="#000000" points="723.894,-359.197 716.095,-366.369 726.664,-365.626 		"/>
	</g>
	<g id="edge76">
		<title>PVCL-&gt;PVCR</title>
		<path fill="none" stroke="#008000" d="M873.961-309.449C914.284-313.95,981.267-326.401,1027-360
			c100.63-73.932,157-108.129,157-233c0-74,0-74,0-74c0-56.572-40.03-64.457-91-89c-68.02-32.751-294.444-46.791-391.916-51.276"/>
		<polygon fill="#008000" stroke="#008000" points="700.79,-803.786 690.956,-807.729 701.104,-810.779 		"/>
	</g>
	<g id="edge77">
		<title>PVCL-&gt;PVCR</title>
		<path fill="none" stroke="#000000" d="M874.426-308.436C920.321-311.921,995.239-323.442,1045-360
			c100.63-73.932,157-108.129,157-233c0-74,0-74,0-74c0-56.572-40.03-64.457-91-89c-70.03-33.72-307.984-47.606-409.825-51.65"/>
		<polygon stroke="#000000" points="701.035,-804.152 691.176,-808.032 701.302,-811.147 		"/>
	</g>
	<g id="edge78">
		<title>PVCL-&gt;AVDR</title>
		<path fill="none" stroke="#008000" d="M817.171-292.177C798.466-281.592,771.368-266.077,748-252
			C619.35-174.499,601.481-127.699,462-72c-72.855,29.093-163.636,42.818-217.536,48.822"/>
		<polygon fill="#008000" stroke="#008000" points="244.508,-19.662 234.193,-22.078 243.763,-26.623 		"/>
	</g>
	<g id="edge81">
		<title>PVCL-&gt;AVAR</title>
		<path fill="none" stroke="#008000" d="M842.027-324.267c1.651-18.082,2.982-47.208-2.027-71.733
			c-13.288-65.041-48.9-135.183-69.234-171.673"/>
		<polygon fill="#008000" stroke="#008000" points="767.582,-566.194 765.708,-576.622 773.676,-569.639 		"/>
	</g>
	<g id="edge79">
		<title>PVCL-&gt;DVA</title>
		<path fill="none" stroke="#008000" d="M866.904-294.537c6.811,2.389,14.162,4.748,21.096,6.537
			c98.922,25.524,218.39,41.541,279.22,48.67"/>
		<polygon fill="#008000" stroke="#008000" points="1167.64,-242.804 1177.17,-238.181 1166.84,-235.851 		"/>
	</g>
	<g id="edge80">
		<title>PVCL-&gt;DVA</title>
		<path fill="none" stroke="#000000" d="M859.348-291.085c3.526,1.128,7.143,2.179,10.652,3.085
			c104.533,26.971,232.01,43.328,296.62,49.798"/>
		<polygon stroke="#000000" points="1167.189,-241.663 1176.811,-237.213 1166.52,-234.696 		"/>
	</g>
	<g id="edge82">
		<title>PVCL-&gt;AVAL</title>
		<path fill="none" stroke="#008000" d="M823.462-321.835C802.862-340.056,766.31-371.554,733-396
			c-55.472-40.71-123.822-83.052-162.809-106.517"/>
		<polygon fill="#008000" stroke="#008000" points="568.179,-499.642 561.402,-507.786 571.779,-505.646 		"/>
	</g>
	<g id="edge83">
		<title>PVCL-&gt;AVAL</title>
		<path fill="none" stroke="#000000" d="M834.416-323.801C818.301-342.258,783.142-372.412,751-396
			c-58.231-42.734-130.652-87.268-174.688-109.875"/>
		<polygon stroke="#000000" points="574.471,-502.883 567.094,-510.488 577.604,-509.143 		"/>
	</g>
	<g id="edge84">
		<title>PVCL-&gt;AVDL</title>
		<path fill="none" stroke="#008000" d="M806.953-300.771C754.402-293.018,649.593-275.174,563-252
			c-2.041,0.546-4.12,1.132-6.207,1.746"/>
		<polygon fill="#008000" stroke="#008000" points="557.672,-246.862 547.084,-247.223 555.586,-253.544 		"/>
	</g>
	<g id="edge85">
		<title>PVCL-&gt;AVBL</title>
		<path fill="none" stroke="#008000" d="M862.291-319.866C909.65-349.059,1016-425.274,1016-521c0-74,0-74,0-74
			c0-40.004,0-86.347,0-114.92"/>
		<polygon fill="#008000" stroke="#008000" points="1012.5,-709.951 1016,-719.951 1019.5,-709.951 		"/>
	</g>
	<g id="edge86">
		<title>PLMR-&gt;LUAR</title>
		<path fill="none" stroke="#000000" d="M520.498-682.52c-43.213-38.043-164.275-135.921-220.435-178.357"/>
		<polygon stroke="#000000" points="297.851,-858.162 291.947,-866.959 302.048,-863.764 		"/>
	</g>
	<g id="edge87">
		<title>PLMR-&gt;PVCR</title>
		<path fill="none" stroke="#000000" d="M553.186-682.169c23.484-24.424,64.579-72.7,87.211-102.138"/>
		<polygon stroke="#000000" points="637.709,-786.556 646.524,-792.433 643.298,-782.341 		"/>
	</g>
	<g id="edge88">
		<title>PLMR-&gt;AVDR</title>
		<path fill="none" stroke="#008000" d="M506.62-655.334C413.653-622.703,132-507.315,132-307c0,0,0,0,0,146
			c0,44.891,27.461,90.951,46.956,117.995"/>
		<polygon fill="#008000" stroke="#008000" points="181.809,-45.034 184.961,-34.919 176.189,-40.86 		"/>
	</g>
	<g id="edge90">
		<title>PLMR-&gt;AVAR</title>
		<path fill="none" stroke="#008000" d="M565.041-654.986c6.861,2.327,14.159,4.771,20.959,6.986
			c44.277,14.426,95.305,30.225,129.811,40.787"/>
		<polygon fill="#008000" stroke="#008000" points="716.983,-610.515 725.524,-604.245 714.938,-603.82 		"/>
	</g>
	<g id="edge89">
		<title>PLMR-&gt;DVA</title>
		<path fill="none" stroke="#008000" d="M572.295-663.636C625.318-660.38,725.915-649.352,802-612
			c180.318,88.522,336.28,283.973,387.36,352.6"/>
		<polygon fill="#008000" stroke="#008000" points="1192.48,-261.069 1195.6,-250.944 1186.85,-256.913 		"/>
	</g>
	<g id="edge91">
		<title>PLMR-&gt;AVAL</title>
		<path fill="none" stroke="#008000" d="M536.362-647.871c0.511,24.201,1.45,68.66,2.059,97.478"/>
		<polygon fill="#008000" stroke="#008000" points="541.925,-550.261 538.637,-540.189 534.926,-550.113 		"/>
	</g>
	<g id="edge92">
		<title>PLMR-&gt;AVDL</title>
		<path fill="none" stroke="#008000" d="M529.428-648.27C520.32-624.525,503.87-579.537,494-540
			c-19.436,77.852-19.533,99.949-14,180c2.228,32.23-0.792,41.549,10,72c3.464,9.775,8.863,19.71,14.245,28.296"/>
		<polygon fill="#008000" stroke="#008000" points="507.197,-261.586 509.767,-251.307 501.348,-257.739 		"/>
	</g>
	<g id="edge93">
		<title>PLMR-&gt;PVCL</title>
		<path fill="none" stroke="#008000" d="M552.682-649.747C595.157-610.397,709.575-501.162,788-396
			c15.032,20.157,29.229,44.998,38.977,63.309"/>
		<polygon fill="#008000" stroke="#008000" points="830.11,-334.252 831.651,-323.77 823.91,-331.003 		"/>
	</g>
	<g id="edge97">
		<title>LUAL-&gt;PLML</title>
		<path fill="none" stroke="#000000" d="M561.614-435.834c23.708,11.939,61.057,29.521,89.093,41.963"/>
		<polygon stroke="#000000" points="652.449,-396.928 660.198,-389.702 649.634,-390.519 		"/>
	</g>
	<g id="edge99">
		<title>LUAL-&gt;AVDR</title>
		<path fill="none" stroke="#008000" d="M517.808-435.055C478.164-403.403,398-322.086,398-235c0,0,0,0,0,74
			c0,77.131-98.592,115.297-157.429,131.637"/>
		<polygon fill="#008000" stroke="#008000" points="241.351,-25.949 230.786,-26.743 239.54,-32.711 		"/>
	</g>
	<g id="edge98">
		<title>LUAL-&gt;AVAR</title>
		<path fill="none" stroke="#008000" d="M551.454-467.078C567.239-486.553,596.134-519.314,627-540
			c15.357-10.292,58.292-27.163,90.441-39.103"/>
		<polygon fill="#008000" stroke="#008000" points="716.436,-582.463 727.03,-582.638 718.857,-575.895 		"/>
	</g>
	<g id="edge95">
		<title>LUAL-&gt;AVAL</title>
		<path fill="none" stroke="#008000" d="M539-468.104c0-7.688,0-16.95,0-25.562"/>
		<polygon fill="#008000" stroke="#008000" points="535.5,-493.697 539,-503.697 542.5,-493.697 		"/>
	</g>
	<g id="edge96">
		<title>LUAL-&gt;AVAL</title>
		<path fill="none" stroke="#000000" d="M550.582-467.147c1.853-8.202,2.364-18.374,1.531-27.66"/>
		<polygon stroke="#000000" points="548.642,-494.353 550.602,-504.765 555.562,-495.403 		"/>
	</g>
	<g id="edge94">
		<title>LUAL-&gt;AVDL</title>
		<path fill="none" stroke="#008000" d="M533.76-431.849c-6.476,37.017-13.711,124.668-14.276,169.463"/>
		<polygon fill="#008000" stroke="#008000" points="522.983,-262.233 519.484,-252.232 515.983,-262.232 		"/>
	</g>
	<g id="edge100">
		<title>AVBL-&gt;AVBR</title>
		<path fill="none" stroke="#008000" d="M1030.52-721.116c8.351,9.129,18.98,20.761,28.25,30.899"/>
		<polygon fill="#008000" stroke="#008000" points="1061.37,-692.563 1065.53,-682.821 1056.2,-687.84 		"/>
	</g>
	<g id="edge101">
		<title>AVBL-&gt;AVBR</title>
		<path fill="none" stroke="#000000" d="M1019.74-720.055c7.01,9.994,18.439,22.693,29.76,33.161"/>
		<polygon stroke="#000000" points="1052.07,-689.296 1057.26,-680.064 1047.439,-684.04 		"/>
	</g>
	<g id="edge102">
		<title>AVBL-&gt;AVDR</title>
		<path fill="none" stroke="#008000" d="M980.291-734.39C868.299-725.622,529.541-697.041,482-684
			C244.531-618.857,76-553.242,76-307c0,0,0,0,0,146c0,54.459,51.516,100.113,87.752,124.025"/>
		<polygon fill="#008000" stroke="#008000" points="166.02,-39.68 172.594,-31.371 162.274,-33.768 		"/>
	</g>
	<g id="edge104">
		<title>AVBL-&gt;AVAR</title>
		<path fill="none" stroke="#008000" d="M992.632-724.185C974.205-713.856,948.03-698.682,926-684
			c-22.19,14.789-24.947,22.596-48,36c-26.789,15.576-59.014,29.385-83.616,39"/>
		<polygon fill="#008000" stroke="#008000" points="795.611,-605.722 785.021,-605.399 793.098,-612.255 		"/>
	</g>
	<g id="edge103">
		<title>AVBL-&gt;DVA</title>
		<path fill="none" stroke="#000000" d="M1051.6-734.202C1123.76-726.618,1278-698.56,1278-595c0,0,0,0,0,74
			c0,99.281-49.5,209.548-67.2,259.196"/>
		<polygon stroke="#000000" points="1214.05,-260.505 1207.53,-252.155 1207.42,-262.75 		"/>
	</g>
	<g id="edge105">
		<title>AVBL-&gt;AVAL</title>
		<path fill="none" stroke="#008000" d="M1001.21-721.337C982.624-702.28,949.138-669.94,916-648c-31.164,20.633-45.16,14.885-76,36
			c-19.196,13.143-17.35,25.285-38,36c-69.719,36.174-161.706,47.688-216.372,51.334"/>
		<polygon fill="#008000" stroke="#008000" points="585.732,-521.166 575.539,-524.054 585.309,-528.153 		"/>
	</g>
	<g id="edge106">
		<title>AVBL-&gt;AVDL</title>
		<path fill="none" stroke="#008000" d="M979.934-735.142C884.009-728.122,621.25-694.955,494-540
			c-71.222,86.729-54.106,146.442-16,252c4.042,11.196,11.592,21.697,19.311,30.352"/>
		<polygon fill="#008000" stroke="#008000" points="499.992,-259.908 504.352,-250.252 494.922,-255.081 		"/>
	</g>
</g>
</svg>
